<?xml version="1.0" encoding="UTF-8"?>
<svg id="Layer_1" xmlns="http://www.w3.org/2000/svg" version="1.1" viewBox="0 0 160 34">
  <!-- Generator: Adobe Illustrator 29.6.1, SVG Export Plug-In . SVG Version: 2.1.1 Build 9)  -->
  <defs>
    <style>
      .st0 {
        fill: #233c50;
      }

      .st1 {
        fill: #f58b1f;
      }

      .st2 {
        fill: #0e2e4a;
      }
    </style>
  </defs>
  <g>
    <path class="st1" d="M61.87,30.68c-1.5-.93-5.67-4.56-2.09-8.11,1.04-1.04,2.13-1.73,3.99-2.62,2.17-1.01,8.57-4.27,4.71-6.54-.68-.37-1.24-.55-2.13-.79-.08-.02-.14-.03-.15-.02,3.54,1.95,1.29,3.68-3.2,5.34-1.67.6-3.35,1.19-4.88,2.11-6.32,3.6-5.06,8.1-2.2,10.64,1.34.01,5.52-.01,5.95,0h0Z"/>
    <path class="st1" d="M73.03,30.68c-3.12-1.4-9.11-4.65-6.21-7.94.21-.24.45-.45.71-.64,5.5-4.09,7.62-8.65-.09-9.94-.11-.02.1.06.14.07.73.29,1.41.59,2.04,1.13,3.4,2.85-3.27,6.75-4.2,7.24-1.06.57-2.02,1.19-2.74,1.94-3.92,3.87,2.14,7.66,3.55,8.36,1.57.04,5.79-.15,6.81-.14.07,0,.12,0,.02-.07h-.03Z"/>
    <path class="st1" d="M60.95,16.69h-.16c-1.32-1.3-2.58-2.75-3.56-4.33-1.32-2.13-2.19-4.46-.84-6.83,1.85-3.25,6.49-3.5,8.67-.46,1.88,2.62.72,5.41-.88,7.8-.93,1.38-2.04,2.67-3.23,3.82ZM60.71,5.73c-1.81.14-2.79,2.14-1.8,3.67.92,1.42,3.08,1.39,3.97-.05,1.02-1.64-.24-3.77-2.17-3.62Z"/>
  </g>
  <g>
    <path class="st2" d="M76.67,4.33h1.81v7.09h4.28v1.55h-6.09V4.33Z"/>
    <path class="st2" d="M89.07,11.2h-3.18l-.6,1.78h-1.89l3.08-8.64h2.04l3.06,8.64h-1.96l-.56-1.78h0ZM88.57,9.71l-1.08-3.4-1.11,3.4h2.19Z"/>
    <path class="st2" d="M95.43,11.72c.43,0,.77-.05,1.04-.14.5-.18.76-.51.76-1,0-.29-.13-.51-.38-.66s-.64-.29-1.18-.4l-.91-.21c-.9-.2-1.52-.42-1.86-.66-.58-.4-.87-1.02-.87-1.87,0-.77.28-1.42.84-1.93s1.39-.77,2.48-.77c.91,0,1.69.24,2.33.72.64.48.98,1.18,1.01,2.1h-1.74c-.03-.52-.26-.89-.68-1.11-.28-.14-.63-.22-1.05-.22-.47,0-.84.09-1.11.28s-.42.45-.42.79c0,.31.14.54.41.69.18.1.55.22,1.13.36l1.49.36c.65.16,1.15.37,1.48.63.52.41.77.99.77,1.76s-.3,1.45-.91,1.97c-.6.52-1.46.78-2.56.78s-2.01-.26-2.66-.77c-.64-.51-.97-1.22-.97-2.12h1.72c.05.39.16.69.32.89.29.36.8.53,1.51.53h.01Z"/>
    <path class="st2" d="M106.36,4.33v1.53h-2.59v7.11h-1.82v-7.11h-2.6v-1.53h7.01Z"/>
  </g>
  <g>
    <path class="st2" d="M78.42,24.58h-1.75v-9h2.74l1.64,7.08,1.62-7.08h2.7v9h-1.75v-7.56l-1.7,7.55h-1.83l-1.69-7.55v7.56h.02Z"/>
    <path class="st2" d="M86.89,15.58h1.87v9h-1.87v-9Z"/>
    <path class="st2" d="M90.34,15.58h1.88v7.38h4.46v1.62h-6.34v-9Z"/>
    <path class="st2" d="M103.87,20.65h-4.37v2.31h4.98v1.62h-6.82v-9h6.6v1.59h-4.76v1.91h4.37v1.56h0Z"/>
  </g>
  <g>
    <path class="st0" d="M76.67,27.09h.81v3.18h1.92v.7h-2.73v-3.87h0Z"/>
    <path class="st0" d="M81.72,31.07c-.55,0-.98-.15-1.27-.45-.39-.37-.59-.9-.59-1.6s.2-1.24.59-1.6c.29-.3.72-.45,1.27-.45s.98.15,1.27.45c.39.36.59.89.59,1.6s-.2,1.23-.59,1.6c-.29.3-.72.45-1.27.45ZM82.49,30.03c.19-.24.28-.57.28-1.01s-.09-.77-.28-1.01-.44-.36-.76-.36-.58.12-.77.35-.29.57-.29,1.01.1.77.29,1.01.45.35.77.35.58-.12.76-.35h0Z"/>
    <path class="st0" d="M86.75,30.87c-.21.13-.48.2-.79.2-.51,0-.93-.18-1.26-.53-.34-.36-.51-.85-.51-1.47s.17-1.13.52-1.51c.35-.38.8-.57,1.37-.57.49,0,.89.12,1.19.37s.47.56.51.93h-.8c-.06-.26-.21-.45-.45-.55-.13-.06-.28-.09-.44-.09-.31,0-.57.12-.77.35s-.3.59-.3,1.06.11.81.33,1.01.46.3.74.3.49-.08.67-.24c.17-.16.28-.36.32-.62h-.9v-.65h1.61v2.08h-.54l-.08-.48c-.16.18-.3.31-.42.39v.02Z"/>
    <path class="st0" d="M88.7,27.09h.8v3.87h-.8v-3.87Z"/>
    <path class="st0" d="M91.86,30.4c.19,0,.35-.02.47-.06.23-.08.34-.23.34-.45,0-.13-.06-.23-.17-.3s-.29-.13-.53-.18l-.41-.09c-.4-.09-.68-.19-.84-.3-.26-.18-.39-.46-.39-.84,0-.35.13-.64.38-.86.25-.23.62-.34,1.11-.34.41,0,.76.11,1.05.32.29.22.44.53.45.94h-.78c-.01-.23-.12-.4-.3-.5-.13-.06-.28-.1-.47-.1-.21,0-.38.04-.5.13-.12.08-.19.2-.19.35,0,.14.06.24.18.31.08.05.25.1.5.16l.67.16c.29.07.51.16.66.28.23.18.35.45.35.79s-.14.65-.41.88c-.27.23-.65.35-1.15.35s-.9-.12-1.19-.35-.43-.55-.43-.95h.77c.02.18.07.31.14.4.13.16.36.24.68.24h.01Z"/>
    <path class="st0" d="M97.02,27.09v.69h-1.16v3.19h-.82v-3.19h-1.16v-.69h3.14Z"/>
    <path class="st0" d="M97.62,27.09h.8v3.87h-.8v-3.87Z"/>
    <path class="st0" d="M102.11,30.67c-.29.26-.66.4-1.11.4-.56,0-1-.18-1.31-.54-.32-.36-.48-.85-.48-1.48,0-.68.18-1.2.54-1.56.32-.32.72-.48,1.2-.48.65,0,1.13.21,1.43.64.17.24.26.48.27.72h-.81c-.05-.19-.12-.33-.2-.42-.15-.17-.37-.25-.65-.25s-.53.12-.7.36-.25.57-.25,1.01.09.76.27.98.41.32.68.32.5-.09.65-.28c.08-.1.15-.25.21-.45h.8c-.07.42-.25.77-.54,1.03Z"/>
    <path class="st0" d="M104.85,30.4c.19,0,.35-.02.47-.06.23-.08.34-.23.34-.45,0-.13-.06-.23-.17-.3s-.29-.13-.53-.18l-.41-.09c-.4-.09-.68-.19-.84-.3-.26-.18-.39-.46-.39-.84,0-.35.13-.64.38-.86.25-.23.62-.34,1.11-.34.41,0,.76.11,1.05.32.29.22.44.53.45.94h-.78c-.01-.23-.12-.4-.3-.5-.13-.06-.28-.1-.47-.1-.21,0-.38.04-.5.13-.12.08-.19.2-.19.35,0,.14.06.24.18.31.08.05.25.1.5.16l.67.16c.29.07.51.16.66.28.23.18.35.45.35.79s-.14.65-.41.88c-.27.23-.65.35-1.15.35s-.9-.12-1.19-.35-.43-.55-.43-.95h.77c.02.18.07.31.14.4.13.16.36.24.68.24h.01Z"/>
  </g>
</svg>