<?xml version="1.0" encoding="UTF-8"?>
<svg id="Layer_1" xmlns="http://www.w3.org/2000/svg" version="1.1" viewBox="0 0 595.28 841.89" width="160.00px" height="226.28px">
  <!-- Generator: Adobe Illustrator 29.6.1, SVG Export Plug-In . SVG Version: 2.1.1 Build 9)  -->
  <defs>
    <style>
      .st0 {
        fill: #233c50;
      }

      .st1 {
        fill: #0e2e4a;
      }

      .st2 {
        fill: #f68c1f;
      }
    </style>
  </defs>
  <g>
    <path class="st2" d="M225.47,380.65c-7.13-4.43-26.92-21.64-9.94-38.5,4.96-4.93,10.14-8.22,18.95-12.44,10.3-4.81,40.71-20.27,22.39-31.08-3.25-1.78-5.88-2.62-10.11-3.77-.38-.1-.68-.16-.72-.12,16.83,9.25,6.12,17.46-15.22,25.38-7.93,2.85-15.92,5.63-23.17,10.02-30.01,17.1-24.02,38.47-10.43,50.51,6.38.05,26.2-.05,28.25-.03h0Z"/>
    <path class="st2" d="M278.46,380.64c-14.81-6.67-43.27-22.09-29.51-37.69,1-1.13,2.15-2.13,3.36-3.03,26.11-19.42,36.18-41.09-.41-47.21-.5-.1.47.27.65.34,3.46,1.37,6.7,2.82,9.68,5.35,16.12,13.54-15.54,32.06-19.94,34.37-5.02,2.72-9.57,5.64-13.03,9.2-18.62,18.37,10.17,36.39,16.84,39.7,7.45.2,27.5-.69,32.33-.69.32-.01.57-.04.07-.32l-.04-.02Z"/>
    <path class="st2" d="M221.11,314.19h-.77c-6.28-6.16-12.25-13.07-16.9-20.56-6.28-10.12-10.41-21.17-4.01-32.45,8.77-15.44,30.82-16.61,41.18-2.17,8.93,12.45,3.43,25.7-4.16,37.02-4.39,6.55-9.71,12.67-15.35,18.16ZM219.94,262.14c-8.58.66-13.26,10.17-8.56,17.42,4.38,6.74,14.61,6.59,18.85-.23,4.83-7.78-1.16-17.88-10.29-17.18Z"/>
  </g>
  <g>
    <path class="st1" d="M295.75,255.51h8.58v33.66h20.32v7.38h-28.9v-41.04Z"/>
    <path class="st1" d="M354.63,288.11h-15.12l-2.84,8.44h-8.96l14.64-41.04h9.69l14.53,41.04h-9.3l-2.65-8.44ZM352.24,281.04l-5.12-16.15-5.29,16.15h10.41Z"/>
    <path class="st1" d="M384.84,290.62c2.02,0,3.67-.22,4.93-.67,2.39-.85,3.59-2.44,3.59-4.76,0-1.35-.59-2.4-1.78-3.15-1.19-.72-3.05-1.36-5.6-1.92l-4.34-.97c-4.27-.96-7.22-2.01-8.85-3.15-2.77-1.89-4.15-4.85-4.15-8.88,0-3.68,1.34-6.73,4.01-9.16,2.67-2.43,6.6-3.65,11.78-3.65,4.32,0,8.01,1.15,11.07,3.44,3.05,2.29,4.65,5.62,4.8,9.98h-8.24c-.15-2.47-1.23-4.22-3.23-5.26-1.34-.69-3-1.03-4.98-1.03-2.21,0-3.97.45-5.29,1.34s-1.98,2.13-1.98,3.73c0,1.47.65,2.56,1.95,3.29.84.48,2.62,1.05,5.35,1.7l7.07,1.7c3.1.74,5.44,1.74,7.02,2.98,2.45,1.93,3.67,4.72,3.67,8.38s-1.43,6.86-4.3,9.34c-2.87,2.48-6.92,3.72-12.15,3.72s-9.55-1.22-12.61-3.66c-3.06-2.44-4.59-5.8-4.59-10.06h8.19c.26,1.87.77,3.28,1.53,4.2,1.39,1.69,3.78,2.53,7.16,2.53Z"/>
    <path class="st1" d="M436.72,255.51v7.27h-12.28v33.77h-8.63v-33.77h-12.33v-7.27h33.24Z"/>
  </g>
  <g>
    <path class="st1" d="M304.07,351.68h-8.32v-42.73h12.99l7.77,33.6,7.71-33.6h12.84v42.73h-8.32v-28.91c0-.83,0-2,.03-3.49.02-1.5.03-2.65.03-3.46l-8.09,35.86h-8.67l-8.03-35.86c0,.81,0,1.97.03,3.46.02,1.5.03,2.66.03,3.49v28.91Z"/>
    <path class="st1" d="M344.27,308.94h8.87v42.73h-8.87v-42.73Z"/>
    <path class="st1" d="M360.66,308.94h8.93v35.05h21.16v7.68h-30.09v-42.73Z"/>
    <path class="st1" d="M424.91,333.01h-20.76v10.99h23.66v7.68h-32.38v-42.73h31.34v7.57h-22.61v9.07h20.76v7.42Z"/>
  </g>
  <g>
    <path class="st0" d="M295.75,363.58h3.85v15.09h9.11v3.31h-12.96v-18.4Z"/>
    <path class="st0" d="M319.73,382.49c-2.63,0-4.64-.72-6.03-2.15-1.86-1.76-2.8-4.29-2.8-7.59s.93-5.9,2.8-7.59c1.39-1.43,3.4-2.15,6.03-2.15s4.64.72,6.03,2.15c1.86,1.69,2.78,4.22,2.78,7.59s-.93,5.83-2.78,7.59c-1.39,1.43-3.4,2.15-6.03,2.15ZM323.36,377.55c.89-1.12,1.34-2.72,1.34-4.79s-.45-3.66-1.34-4.79c-.89-1.13-2.1-1.69-3.63-1.69s-2.74.56-3.65,1.69-1.36,2.72-1.36,4.79.45,3.67,1.36,4.79c.91,1.12,2.12,1.69,3.65,1.69s2.73-.56,3.63-1.69Z"/>
    <path class="st0" d="M343.62,381.53c-1.02.62-2.26.94-3.75.94-2.44,0-4.44-.84-5.99-2.53-1.62-1.7-2.43-4.02-2.43-6.97s.82-5.37,2.46-7.17c1.64-1.8,3.81-2.7,6.5-2.7,2.34,0,4.22.59,5.64,1.78,1.42,1.19,2.23,2.67,2.44,4.44h-3.78c-.29-1.26-1-2.13-2.13-2.63-.63-.27-1.34-.41-2.11-.41-1.48,0-2.7.56-3.65,1.68s-1.43,2.8-1.43,5.05.52,3.87,1.55,4.81c1.03.94,2.21,1.41,3.52,1.41s2.35-.37,3.17-1.12c.82-.74,1.33-1.72,1.52-2.93h-4.26v-3.07h7.67v9.88h-2.55l-.39-2.3c-.74.87-1.41,1.49-2,1.85Z"/>
    <path class="st0" d="M352.88,363.58h3.82v18.4h-3.82v-18.4Z"/>
    <path class="st0" d="M367.9,379.32c.91,0,1.64-.1,2.21-.3,1.07-.38,1.61-1.09,1.61-2.13,0-.61-.27-1.08-.8-1.41-.53-.32-1.37-.61-2.51-.86l-1.95-.44c-1.91-.43-3.24-.9-3.97-1.41-1.24-.85-1.86-2.18-1.86-3.98,0-1.65.6-3.02,1.8-4.11,1.2-1.09,2.96-1.64,5.28-1.64,1.94,0,3.59.51,4.96,1.54,1.37,1.03,2.09,2.52,2.15,4.48h-3.7c-.07-1.11-.55-1.89-1.45-2.36-.6-.31-1.34-.46-2.23-.46-.99,0-1.78.2-2.37.6-.59.4-.89.96-.89,1.67,0,.66.29,1.15.87,1.47.37.22,1.17.47,2.4.76l3.17.76c1.39.33,2.44.78,3.15,1.34,1.1.87,1.65,2.12,1.65,3.76s-.64,3.08-1.93,4.19c-1.29,1.11-3.1,1.67-5.45,1.67s-4.28-.55-5.66-1.64c-1.37-1.09-2.06-2.6-2.06-4.51h3.67c.12.84.35,1.47.69,1.89.62.76,1.69,1.14,3.21,1.14Z"/>
    <path class="st0" d="M392.4,363.58v3.26h-5.51v15.14h-3.87v-15.14h-5.53v-3.26h14.91Z"/>
    <path class="st0" d="M395.26,363.58h3.82v18.4h-3.82v-18.4Z"/>
    <path class="st0" d="M416.55,380.61c-1.37,1.26-3.13,1.89-5.27,1.89-2.65,0-4.73-.85-6.24-2.55-1.51-1.71-2.27-4.04-2.27-7.02,0-3.21.86-5.69,2.58-7.43,1.5-1.51,3.4-2.27,5.72-2.27,3.1,0,5.36,1.02,6.79,3.05.79,1.14,1.21,2.28,1.27,3.43h-3.85c-.25-.88-.57-1.55-.96-2-.7-.8-1.74-1.2-3.11-1.2s-2.5.56-3.31,1.69c-.81,1.13-1.21,2.72-1.21,4.79s.43,3.61,1.28,4.64,1.94,1.54,3.25,1.54,2.38-.44,3.08-1.32c.39-.47.72-1.19.97-2.13h3.81c-.33,2.01-1.18,3.64-2.55,4.89Z"/>
    <path class="st0" d="M429.55,379.32c.91,0,1.64-.1,2.21-.3,1.07-.38,1.61-1.09,1.61-2.13,0-.61-.27-1.08-.8-1.41-.53-.32-1.37-.61-2.51-.86l-1.95-.44c-1.91-.43-3.24-.9-3.97-1.41-1.24-.85-1.86-2.18-1.86-3.98,0-1.65.6-3.02,1.8-4.11,1.2-1.09,2.96-1.64,5.28-1.64,1.94,0,3.59.51,4.96,1.54,1.37,1.03,2.09,2.52,2.15,4.48h-3.7c-.07-1.11-.55-1.89-1.45-2.36-.6-.31-1.34-.46-2.23-.46-.99,0-1.78.2-2.37.6-.59.4-.89.96-.89,1.67,0,.66.29,1.15.87,1.47.37.22,1.17.47,2.4.76l3.17.76c1.39.33,2.44.78,3.15,1.34,1.1.87,1.65,2.12,1.65,3.76s-.64,3.08-1.93,4.19c-1.29,1.11-3.1,1.67-5.45,1.67s-4.28-.55-5.66-1.64c-1.37-1.09-2.06-2.6-2.06-4.51h3.67c.12.84.35,1.47.69,1.89.62.76,1.69,1.14,3.21,1.14Z"/>
  </g>
</svg>